<svg width="1920" height="1080" viewBox="0 0 1920 1080" fill="none" xmlns="http://www.w3.org/2000/svg">
<path d="M165.412 376.8L218.276 346.279L271.139 376.8V437.841L218.276 468.362L165.412 437.841V376.8Z" stroke="#192168"/>
<path d="M165.412 182.853L218.276 152.332L271.139 182.853V243.894L218.276 274.415L165.412 243.894V182.853Z" stroke="#192168"/>
<path d="M220.981 85.7034L273.845 55.1827L326.708 85.7034V146.745L273.845 177.265L220.981 146.745V85.7034Z" stroke="#192168"/>
<path d="M276.938 -9.46147L329.801 -39.9821L382.664 -9.46147V51.5798L329.801 82.1005L276.938 51.5798V-9.46147Z" stroke="#192168"/>
<path d="M722.133 376.8L774.997 346.279L827.86 376.8V437.841L774.997 468.362L722.133 437.841V376.8Z" stroke="#192168"/>
<path d="M722.133 182.853L774.997 152.332L827.86 182.853V243.894L774.997 274.415L722.133 243.894V182.853Z" stroke="#192168"/>
<path d="M777.702 85.7034L830.565 55.1827L883.429 85.7034V146.745L830.565 177.265L777.702 146.745V85.7034Z" stroke="#192168"/>
<path d="M833.658 -9.46147L886.522 -39.9821L939.385 -9.46147V51.5798L886.522 82.1005L833.658 51.5798V-9.46147Z" stroke="#192168"/>
<path d="M1389.73 182.15L1442.6 151.63L1495.46 182.15V243.192L1442.6 273.712L1389.73 243.192V182.15Z" stroke="#192168"/>
<path d="M1445.3 85.001L1498.17 54.4803L1551.03 85.001V146.042L1498.17 176.563L1445.3 146.042V85.001Z" stroke="#192168"/>
<path d="M1501.26 -10.1639L1554.12 -40.6845L1606.98 -10.1639V50.8775L1554.12 81.3981L1501.26 50.8775V-10.1639Z" stroke="#192168"/>
<path d="M1557.21 279.651L1610.08 249.13L1662.94 279.651V340.692L1610.08 371.213L1557.21 340.692V279.651Z" stroke="#192168"/>
<path d="M220.981 473.598L273.845 443.077L326.708 473.598V534.639L273.845 565.16L220.981 534.639V473.598Z" stroke="#192168"/>
<path d="M220.981 279.651L273.845 249.13L326.708 279.651V340.692L273.845 371.213L220.981 340.692V279.651Z" stroke="#192168"/>
<path d="M777.702 473.598L830.565 443.077L883.429 473.598V534.639L830.565 565.16L777.702 534.639V473.598Z" stroke="#192168"/>
<path d="M777.702 279.651L830.565 249.13L883.429 279.651V340.692L830.565 371.213L777.702 340.692V279.651Z" stroke="#192168"/>
<path d="M1612.78 376.449L1665.65 345.928L1718.51 376.449V437.49L1665.65 468.011L1612.78 437.49V376.449Z" stroke="#192168"/>
<path d="M165.412 571.098L218.276 540.577L271.139 571.098V632.139L218.276 662.66L165.412 632.139V571.098Z" stroke="#192168"/>
<path d="M722.133 571.098L774.996 540.577L827.86 571.098V632.139L774.996 662.66L722.133 632.139V571.098Z" stroke="#192168"/>
<path d="M1557.21 473.949L1610.08 443.428L1662.94 473.949V534.99L1610.08 565.511L1557.21 534.99V473.949Z" stroke="#192168"/>
<path d="M220.981 667.962L273.845 637.441L326.708 667.962V729.003L273.845 759.524L220.981 729.003V667.962Z" stroke="#192168"/>
<path d="M777.702 667.962L830.565 637.441L883.429 667.962V729.003L830.565 759.524L777.702 729.003V667.962Z" stroke="#192168"/>
<path d="M1612.78 570.812L1665.65 540.292L1718.51 570.812V631.854L1665.65 662.374L1612.78 631.854V570.812Z" stroke="#192168"/>
<path d="M165.412 765.396L218.276 734.876L271.139 765.396V826.438L218.276 856.958L165.412 826.438V765.396Z" stroke="#192168"/>
<path d="M722.133 765.396L774.996 734.876L827.86 765.396V826.438L774.996 856.958L722.133 826.438V765.396Z" stroke="#192168"/>
<path d="M1557.21 668.247L1610.08 637.726L1662.94 668.247V729.288L1610.08 759.809L1557.21 729.288V668.247Z" stroke="#192168"/>
<path d="M220.981 862.325L273.845 831.805L326.708 862.325V923.367L273.845 953.887L220.981 923.367V862.325Z" stroke="#192168"/>
<path d="M777.702 862.325L830.565 831.805L883.429 862.325V923.367L830.565 953.887L777.702 923.367V862.325Z" stroke="#192168"/>
<path d="M1612.78 765.176L1665.65 734.655L1718.51 765.176V826.217L1665.65 856.738L1612.78 826.217V765.176Z" stroke="#192168"/>
<path d="M165.412 959.695L218.276 929.174L271.139 959.695V1020.74L218.276 1051.26L165.412 1020.74V959.695Z" stroke="#192168"/>
<path d="M722.133 959.695L774.996 929.174L827.86 959.695V1020.74L774.996 1051.26L722.133 1020.74V959.695Z" stroke="#192168"/>
<path d="M1501.26 959.695L1554.12 929.174L1606.98 959.695V1020.74L1554.12 1051.26L1501.26 1020.74V959.695Z" stroke="#192168"/>
<path d="M1557.21 862.545L1610.08 832.025L1662.94 862.545V923.587L1610.08 954.107L1557.21 923.587V862.545Z" stroke="#192168"/>
<path d="M54.0166 376.8L106.88 346.279L159.743 376.8V437.841L106.88 468.362L54.0166 437.841V376.8Z" stroke="#192168"/>
<path d="M-57.1209 376.624L-4.25755 346.104L48.6058 376.624V437.666L-4.25755 468.186L-57.1209 437.666V376.624Z" stroke="#192168"/>
<path d="M54.0166 182.853L106.88 152.332L159.743 182.853V243.894L106.88 274.415L54.0166 243.894V182.853Z" stroke="#192168"/>
<path d="M-57.1209 182.677L-4.25755 152.156L48.6058 182.677V243.718L-4.25755 274.239L-57.1209 243.718V182.677Z" stroke="#192168"/>
<path d="M109.586 85.7034L162.449 55.1827L215.312 85.7034V146.745L162.449 177.265L109.586 146.745V85.7034Z" stroke="#192168"/>
<path d="M165.542 -9.46147L218.405 -39.9821L271.268 -9.46147V51.5798L218.405 82.1005L165.542 51.5798V-9.46147Z" stroke="#192168"/>
<path d="M54.1461 -9.46147L107.009 -39.9821L159.873 -9.46147V51.5798L107.009 82.1005L54.1461 51.5798V-9.46147Z" stroke="#192168"/>
<path d="M-1.42289 85.7034L51.4404 55.1827L104.304 85.7034V146.745L51.4404 177.265L-1.42289 146.745V85.7034Z" stroke="#192168"/>
<path d="M610.737 376.8L663.601 346.279L716.464 376.8V437.841L663.601 468.362L610.737 437.841V376.8Z" stroke="#192168"/>
<path d="M610.737 182.853L663.601 152.332L716.464 182.853V243.894L663.601 274.415L610.737 243.894V182.853Z" stroke="#192168"/>
<path d="M666.306 85.7034L719.169 55.1827L772.033 85.7034V146.745L719.169 177.265L666.306 146.745V85.7034Z" stroke="#192168"/>
<path d="M722.262 -9.46147L775.126 -39.9821L827.989 -9.46147V51.5798L775.126 82.1005L722.262 51.5798V-9.46147Z" stroke="#192168"/>
<path d="M1278.34 182.15L1331.2 151.63L1384.06 182.15V243.192L1331.2 273.712L1278.34 243.192V182.15Z" stroke="#192168"/>
<path d="M1333.91 85.001L1386.77 54.4803L1439.63 85.001V146.042L1386.77 176.563L1333.91 146.042V85.001Z" stroke="#192168"/>
<path d="M1389.86 -10.1639L1442.73 -40.6845L1495.59 -10.1639V50.8775L1442.73 81.3981L1389.86 50.8775V-10.1639Z" stroke="#192168"/>
<path d="M1445.82 279.651L1498.68 249.13L1551.54 279.651V340.692L1498.68 371.213L1445.82 340.692V279.651Z" stroke="#192168"/>
<path d="M109.586 473.598L162.449 443.077L215.312 473.598V534.639L162.449 565.16L109.586 534.639V473.598Z" stroke="#192168"/>
<path d="M-1.55191 473.422L51.3114 442.902L104.175 473.422V534.464L51.3114 564.984L-1.55191 534.464V473.422Z" stroke="#192168"/>
<path d="M109.586 279.651L162.449 249.13L215.312 279.651V340.692L162.449 371.213L109.586 340.692V279.651Z" stroke="#192168"/>
<path d="M-1.55191 279.475L51.3114 248.954L104.175 279.475V340.516L51.3114 371.037L-1.55191 340.516V279.475Z" stroke="#192168"/>
<path d="M666.306 473.598L719.169 443.077L772.033 473.598V534.639L719.169 565.16L666.306 534.639V473.598Z" stroke="#192168"/>
<path d="M666.306 279.651L719.169 249.13L772.033 279.651V340.692L719.169 371.213L666.306 340.692V279.651Z" stroke="#192168"/>
<path d="M1501.39 376.449L1554.25 345.928L1607.11 376.449V437.49L1554.25 468.011L1501.39 437.49V376.449Z" stroke="#192168"/>
<path d="M54.0166 571.098L106.88 540.577L159.743 571.098V632.139L106.88 662.66L54.0166 632.139V571.098Z" stroke="#192168"/>
<path d="M-57.1209 570.922L-4.25755 540.402L48.6058 570.922V631.964L-4.25755 662.484L-57.1209 631.964V570.922Z" stroke="#192168"/>
<path d="M610.737 571.098L663.601 540.577L716.464 571.098V632.139L663.601 662.66L610.737 632.139V571.098Z" stroke="#192168"/>
<path d="M1445.82 473.949L1498.68 443.428L1551.54 473.949V534.99L1498.68 565.511L1445.82 534.99V473.949Z" stroke="#192168"/>
<path d="M109.586 667.962L162.449 637.441L215.312 667.962V729.003L162.449 759.524L109.586 729.003V667.962Z" stroke="#192168"/>
<path d="M-1.55191 667.786L51.3114 637.265L104.175 667.786V728.827L51.3114 759.348L-1.55191 728.827V667.786Z" stroke="#192168"/>
<path d="M666.306 667.962L719.169 637.441L772.033 667.962V729.003L719.169 759.524L666.306 729.003V667.962Z" stroke="#192168"/>
<path d="M1501.39 570.812L1554.25 540.292L1607.11 570.812V631.854L1554.25 662.374L1501.39 631.854V570.812Z" stroke="#192168"/>
<path d="M54.0166 765.396L106.88 734.876L159.743 765.396V826.438L106.88 856.958L54.0166 826.438V765.396Z" stroke="#192168"/>
<path d="M-57.1209 765.221L-4.25755 734.7L48.6058 765.221V826.262L-4.25755 856.783L-57.1209 826.262V765.221Z" stroke="#192168"/>
<path d="M610.737 765.396L663.601 734.876L716.464 765.396V826.438L663.601 856.958L610.737 826.438V765.396Z" stroke="#192168"/>
<path d="M1445.82 668.247L1498.68 637.726L1551.54 668.247V729.288L1498.68 759.809L1445.82 729.288V668.247Z" stroke="#192168"/>
<path d="M109.586 862.325L162.449 831.805L215.312 862.325V923.367L162.449 953.887L109.586 923.367V862.325Z" stroke="#192168"/>
<path d="M-1.55191 862.15L51.3114 831.629L104.175 862.15V923.191L51.3114 953.711L-1.55191 923.191V862.15Z" stroke="#192168"/>
<path d="M666.306 862.325L719.169 831.805L772.033 862.325V923.367L719.169 953.887L666.306 923.367V862.325Z" stroke="#192168"/>
<path d="M1501.39 765.176L1554.25 734.655L1607.11 765.176V826.217L1554.25 856.738L1501.39 826.217V765.176Z" stroke="#192168"/>
<path d="M54.0166 959.695L106.88 929.174L159.743 959.695V1020.74L106.88 1051.26L54.0166 1020.74V959.695Z" stroke="#192168"/>
<path d="M-57.1209 959.519L-4.25755 928.998L48.6058 959.519V1020.56L-4.25755 1051.08L-57.1209 1020.56V959.519Z" stroke="#192168"/>
<path d="M610.737 959.695L663.601 929.174L716.464 959.695V1020.74L663.601 1051.26L610.737 1020.74V959.695Z" stroke="#192168"/>
<path d="M1389.86 959.695L1442.73 929.174L1495.59 959.695V1020.74L1442.73 1051.26L1389.86 1020.74V959.695Z" stroke="#192168"/>
<path d="M1445.82 862.545L1498.68 832.025L1551.54 862.545V923.587L1498.68 954.107L1445.82 923.587V862.545Z" stroke="#192168"/>
<path d="M388.204 376.8L441.067 346.279L493.931 376.8V437.841L441.067 468.362L388.204 437.841V376.8Z" stroke="#192168"/>
<path d="M388.204 182.853L441.067 152.332L493.931 182.853V243.894L441.067 274.415L388.204 243.894V182.853Z" stroke="#192168"/>
<path d="M443.773 85.7034L496.636 55.1827L549.5 85.7034V146.745L496.636 177.265L443.773 146.745V85.7034Z" stroke="#192168"/>
<path d="M499.729 -9.46147L552.593 -39.9821L605.456 -9.46147V51.5798L552.593 82.1005L499.729 51.5798V-9.46147Z" stroke="#192168"/>
<path d="M1223.28 279.651L1276.15 249.13L1329.01 279.651V340.692L1276.15 371.213L1223.28 340.692V279.651Z" stroke="#192168"/>
<path d="M944.925 376.8L997.788 346.279L1050.65 376.8V437.841L997.788 468.362L944.925 437.841V376.8Z" stroke="#192168"/>
<path d="M944.925 182.853L997.788 152.332L1050.65 182.853V243.894L997.788 274.415L944.925 243.894V182.853Z" stroke="#192168"/>
<path d="M1000.49 85.7034L1053.36 55.1827L1106.22 85.7034V146.745L1053.36 177.265L1000.49 146.745V85.7034Z" stroke="#192168"/>
<path d="M1056.45 -9.46147L1109.31 -39.9821L1162.18 -9.46147V51.5798L1109.31 82.1005L1056.45 51.5798V-9.46147Z" stroke="#192168"/>
<path d="M1612.52 182.15L1665.39 151.63L1718.25 182.15V243.192L1665.39 273.712L1612.52 243.192V182.15Z" stroke="#192168"/>
<path d="M1668.09 85.001L1720.96 54.4803L1773.82 85.001V146.042L1720.96 176.563L1668.09 146.042V85.001Z" stroke="#192168"/>
<path d="M1724.05 -10.1639L1776.91 -40.6845L1829.78 -10.1639V50.8775L1776.91 81.3981L1724.05 50.8775V-10.1639Z" stroke="#192168"/>
<path d="M1780.01 279.651L1832.87 249.13L1885.73 279.651V340.692L1832.87 371.213L1780.01 340.692V279.651Z" stroke="#192168"/>
<path d="M443.773 473.598L496.636 443.077L549.5 473.598V534.639L496.636 565.16L443.773 534.639V473.598Z" stroke="#192168"/>
<path d="M443.773 279.651L496.636 249.13L549.5 279.651V340.692L496.636 371.213L443.773 340.692V279.651Z" stroke="#192168"/>
<path d="M1278.85 376.449L1331.72 345.928L1384.58 376.449V437.49L1331.72 468.011L1278.85 437.49V376.449Z" stroke="#192168"/>
<path d="M1000.49 473.598L1053.36 443.077L1106.22 473.598V534.639L1053.36 565.16L1000.49 534.639V473.598Z" stroke="#192168"/>
<path d="M1000.49 279.651L1053.36 249.13L1106.22 279.651V340.692L1053.36 371.213L1000.49 340.692V279.651Z" stroke="#192168"/>
<path d="M1835.57 376.449L1888.44 345.928L1941.3 376.449V437.49L1888.44 468.011L1835.57 437.49V376.449Z" stroke="#192168"/>
<path d="M388.204 571.098L441.067 540.577L493.931 571.098V632.139L441.067 662.66L388.204 632.139V571.098Z" stroke="#192168"/>
<path d="M1223.28 473.949L1276.15 443.428L1329.01 473.949V534.99L1276.15 565.511L1223.28 534.99V473.949Z" stroke="#192168"/>
<path d="M944.925 571.098L997.788 540.577L1050.65 571.098V632.139L997.788 662.66L944.925 632.139V571.098Z" stroke="#192168"/>
<path d="M1780.01 473.949L1832.87 443.428L1885.73 473.949V534.99L1832.87 565.511L1780.01 534.99V473.949Z" stroke="#192168"/>
<path d="M443.773 667.962L496.636 637.441L549.5 667.962V729.003L496.636 759.524L443.773 729.003V667.962Z" stroke="#192168"/>
<path d="M1278.85 570.812L1331.72 540.292L1384.58 570.812V631.854L1331.72 662.374L1278.85 631.854V570.812Z" stroke="#192168"/>
<path d="M1000.49 667.962L1053.36 637.441L1106.22 667.962V729.003L1053.36 759.524L1000.49 729.003V667.962Z" stroke="#192168"/>
<path d="M1835.57 570.812L1888.44 540.292L1941.3 570.812V631.854L1888.44 662.374L1835.57 631.854V570.812Z" stroke="#192168"/>
<path d="M388.204 765.396L441.067 734.876L493.931 765.396V826.438L441.067 856.958L388.204 826.438V765.396Z" stroke="#192168"/>
<path d="M1223.28 668.247L1276.15 637.726L1329.01 668.247V729.288L1276.15 759.809L1223.28 729.288V668.247Z" stroke="#192168"/>
<path d="M944.925 765.396L997.788 734.876L1050.65 765.396V826.438L997.788 856.958L944.925 826.438V765.396Z" stroke="#192168"/>
<path d="M1780.01 668.247L1832.87 637.726L1885.73 668.247V729.288L1832.87 759.809L1780.01 729.288V668.247Z" stroke="#192168"/>
<path d="M443.773 862.325L496.636 831.805L549.5 862.325V923.367L496.636 953.887L443.773 923.367V862.325Z" stroke="#192168"/>
<path d="M1278.85 765.176L1331.72 734.655L1384.58 765.176V826.217L1331.72 856.738L1278.85 826.217V765.176Z" stroke="#192168"/>
<path d="M1000.49 862.325L1053.36 831.805L1106.22 862.325V923.367L1053.36 953.887L1000.49 923.367V862.325Z" stroke="#192168"/>
<path d="M1835.57 765.176L1888.44 734.655L1941.3 765.176V826.217L1888.44 856.738L1835.57 826.217V765.176Z" stroke="#192168"/>
<path d="M388.204 959.695L441.067 929.174L493.931 959.695V1020.74L441.067 1051.26L388.204 1020.74V959.695Z" stroke="#192168"/>
<path d="M1167.33 959.695L1220.19 929.174L1273.06 959.695V1020.74L1220.19 1051.26L1167.33 1020.74V959.695Z" stroke="#192168"/>
<path d="M1223.28 862.545L1276.15 832.025L1329.01 862.545V923.587L1276.15 954.107L1223.28 923.587V862.545Z" stroke="#192168"/>
<path d="M944.925 959.695L997.788 929.174L1050.65 959.695V1020.74L997.788 1051.26L944.925 1020.74V959.695Z" stroke="#192168"/>
<path d="M1724.05 959.695L1776.91 929.174L1829.78 959.695V1020.74L1776.91 1051.26L1724.05 1020.74V959.695Z" stroke="#192168"/>
<path d="M1780.01 862.545L1832.87 832.025L1885.73 862.545V923.587L1832.87 954.107L1780.01 923.587V862.545Z" stroke="#192168"/>
<path d="M499.6 376.8L552.463 346.279L605.326 376.8V437.841L552.463 468.362L499.6 437.841V376.8Z" stroke="#192168"/>
<path d="M499.6 182.853L552.463 152.332L605.326 182.853V243.894L552.463 274.415L499.6 243.894V182.853Z" stroke="#192168"/>
<path d="M555.169 85.7034L608.032 55.1827L660.896 85.7034V146.745L608.032 177.265L555.169 146.745V85.7034Z" stroke="#192168"/>
<path d="M611.125 -9.46147L663.988 -39.9821L716.852 -9.46147V51.5798L663.988 82.1005L611.125 51.5798V-9.46147Z" stroke="#192168"/>
<path d="M1167.2 182.15L1220.06 151.63L1272.93 182.15V243.192L1220.06 273.712L1167.2 243.192V182.15Z" stroke="#192168"/>
<path d="M1222.77 85.001L1275.63 54.4803L1328.5 85.001V146.042L1275.63 176.563L1222.77 146.042V85.001Z" stroke="#192168"/>
<path d="M1278.73 -10.1639L1331.59 -40.6845L1384.45 -10.1639V50.8775L1331.59 81.3981L1278.73 50.8775V-10.1639Z" stroke="#192168"/>
<path d="M1334.68 279.651L1387.54 249.13L1440.41 279.651V340.692L1387.54 371.213L1334.68 340.692V279.651Z" stroke="#192168"/>
<path d="M1056.32 376.8L1109.18 346.279L1162.05 376.8V437.841L1109.18 468.362L1056.32 437.841V376.8Z" stroke="#192168"/>
<path d="M1056.32 182.853L1109.18 152.332L1162.05 182.853V243.894L1109.18 274.415L1056.32 243.894V182.853Z" stroke="#192168"/>
<path d="M1111.89 85.7034L1164.75 55.1827L1217.62 85.7034V146.745L1164.75 177.265L1111.89 146.745V85.7034Z" stroke="#192168"/>
<path d="M1167.85 -9.46147L1220.71 -39.9821L1273.57 -9.46147V51.5798L1220.71 82.1005L1167.85 51.5798V-9.46147Z" stroke="#192168"/>
<path d="M1723.92 182.15L1776.78 151.63L1829.65 182.15V243.192L1776.78 273.712L1723.92 243.192V182.15Z" stroke="#192168"/>
<path d="M1779.49 85.001L1832.35 54.4803L1885.22 85.001V146.042L1832.35 176.563L1779.49 146.042V85.001Z" stroke="#192168"/>
<path d="M1835.45 -10.1639L1888.31 -40.6845L1941.17 -10.1639V50.8775L1888.31 81.3981L1835.45 50.8775V-10.1639Z" stroke="#192168"/>
<path d="M1891.4 279.651L1944.26 249.13L1997.13 279.651V340.692L1944.26 371.213L1891.4 340.692V279.651Z" stroke="#192168"/>
<path d="M555.169 473.598L608.032 443.077L660.896 473.598V534.639L608.032 565.16L555.169 534.639V473.598Z" stroke="#192168"/>
<path d="M555.169 279.651L608.032 249.13L660.896 279.651V340.692L608.032 371.213L555.169 340.692V279.651Z" stroke="#192168"/>
<path d="M1390.25 376.449L1443.11 345.928L1495.98 376.449V437.49L1443.11 468.011L1390.25 437.49V376.449Z" stroke="#192168"/>
<path d="M1111.89 473.598L1164.75 443.077L1217.62 473.598V534.639L1164.75 565.16L1111.89 534.639V473.598Z" stroke="#192168"/>
<path d="M1111.89 279.651L1164.75 249.13L1217.62 279.651V340.692L1164.75 371.213L1111.89 340.692V279.651Z" stroke="#192168"/>
<path d="M499.6 571.098L552.463 540.577L605.326 571.098V632.139L552.463 662.66L499.6 632.139V571.098Z" stroke="#192168"/>
<path d="M1334.68 473.949L1387.54 443.428L1440.41 473.949V534.99L1387.54 565.511L1334.68 534.99V473.949Z" stroke="#192168"/>
<path d="M1056.32 571.098L1109.18 540.577L1162.05 571.098V632.139L1109.18 662.66L1056.32 632.139V571.098Z" stroke="#192168"/>
<path d="M1891.4 473.949L1944.26 443.428L1997.13 473.949V534.99L1944.26 565.511L1891.4 534.99V473.949Z" stroke="#192168"/>
<path d="M555.169 667.962L608.032 637.441L660.896 667.962V729.003L608.032 759.524L555.169 729.003V667.962Z" stroke="#192168"/>
<path d="M1390.25 570.812L1443.11 540.292L1495.98 570.812V631.854L1443.11 662.374L1390.25 631.854V570.812Z" stroke="#192168"/>
<path d="M1111.89 667.962L1164.75 637.441L1217.62 667.962V729.003L1164.75 759.524L1111.89 729.003V667.962Z" stroke="#192168"/>
<path d="M499.6 765.396L552.463 734.876L605.326 765.396V826.438L552.463 856.958L499.6 826.438V765.396Z" stroke="#192168"/>
<path d="M1334.68 668.247L1387.54 637.726L1440.41 668.247V729.288L1387.54 759.809L1334.68 729.288V668.247Z" stroke="#192168"/>
<path d="M1056.32 765.396L1109.18 734.876L1162.05 765.396V826.438L1109.18 856.958L1056.32 826.438V765.396Z" stroke="#192168"/>
<path d="M1891.4 668.247L1944.26 637.726L1997.13 668.247V729.288L1944.26 759.809L1891.4 729.288V668.247Z" stroke="#192168"/>
<path d="M555.169 862.325L608.032 831.805L660.896 862.325V923.367L608.032 953.887L555.169 923.367V862.325Z" stroke="#192168"/>
<path d="M1390.25 765.176L1443.11 734.655L1495.98 765.176V826.217L1443.11 856.738L1390.25 826.217V765.176Z" stroke="#192168"/>
<path d="M1111.89 862.325L1164.75 831.805L1217.62 862.325V923.367L1164.75 953.887L1111.89 923.367V862.325Z" stroke="#192168"/>
<path d="M499.6 959.695L552.463 929.174L605.326 959.695V1020.74L552.463 1051.26L499.6 1020.74V959.695Z" stroke="#192168"/>
<path d="M1278.72 959.695L1331.59 929.174L1384.45 959.695V1020.74L1331.59 1051.26L1278.72 1020.74V959.695Z" stroke="#192168"/>
<path d="M1334.68 862.545L1387.54 832.025L1440.41 862.545V923.587L1387.54 954.107L1334.68 923.587V862.545Z" stroke="#192168"/>
<path d="M1056.32 959.695L1109.18 929.174L1162.05 959.695V1020.74L1109.18 1051.26L1056.32 1020.74V959.695Z" stroke="#192168"/>
<path d="M1835.45 959.695L1888.31 929.174L1941.17 959.695V1020.74L1888.31 1051.26L1835.45 1020.74V959.695Z" stroke="#192168"/>
<path d="M1891.4 862.545L1944.26 832.025L1997.13 862.545V923.587L1944.26 954.107L1891.4 923.587V862.545Z" stroke="#192168"/>
<path d="M276.808 376.8L329.672 346.279L382.535 376.8V437.841L329.672 468.362L276.808 437.841V376.8Z" stroke="#192168"/>
<path d="M276.808 182.853L329.672 152.332L382.535 182.853V243.894L329.672 274.415L276.808 243.894V182.853Z" stroke="#192168"/>
<path d="M332.377 85.7034L385.24 55.1827L438.104 85.7034V146.745L385.24 177.265L332.377 146.745V85.7034Z" stroke="#192168"/>
<path d="M388.333 -9.46147L441.197 -39.9821L494.06 -9.46147V51.5798L441.197 82.1005L388.333 51.5798V-9.46147Z" stroke="#192168"/>
<path d="M833.529 376.8L886.392 346.279L939.255 376.8V437.841L886.392 468.362L833.529 437.841V376.8Z" stroke="#192168"/>
<path d="M833.529 182.853L886.392 152.332L939.255 182.853V243.894L886.392 274.415L833.529 243.894V182.853Z" stroke="#192168"/>
<path d="M889.098 85.7034L941.961 55.1827L994.825 85.7034V146.745L941.961 177.265L889.098 146.745V85.7034Z" stroke="#192168"/>
<path d="M945.054 -9.46147L997.917 -39.9821L1050.78 -9.46147V51.5798L997.917 82.1005L945.054 51.5798V-9.46147Z" stroke="#192168"/>
<path d="M1501.13 182.15L1553.99 151.63L1606.86 182.15V243.192L1553.99 273.712L1501.13 243.192V182.15Z" stroke="#192168"/>
<path d="M1556.7 85.001L1609.56 54.4803L1662.42 85.001V146.042L1609.56 176.563L1556.7 146.042V85.001Z" stroke="#192168"/>
<path d="M1612.65 -10.1639L1665.52 -40.6845L1718.38 -10.1639V50.8775L1665.52 81.3981L1612.65 50.8775V-10.1639Z" stroke="#192168"/>
<path d="M1668.61 279.651L1721.47 249.13L1774.34 279.651V340.692L1721.47 371.213L1668.61 340.692V279.651Z" stroke="#192168"/>
<path d="M332.377 473.598L385.24 443.077L438.104 473.598V534.639L385.24 565.16L332.377 534.639V473.598Z" stroke="#192168"/>
<path d="M332.377 279.651L385.24 249.13L438.104 279.651V340.692L385.24 371.213L332.377 340.692V279.651Z" stroke="#192168"/>
<path d="M1167.46 376.449L1220.32 345.928L1273.18 376.449V437.49L1220.32 468.011L1167.46 437.49V376.449Z" stroke="#192168"/>
<path d="M889.098 473.598L941.961 443.077L994.824 473.598V534.639L941.961 565.16L889.098 534.639V473.598Z" stroke="#192168"/>
<path d="M889.098 279.651L941.961 249.13L994.824 279.651V340.692L941.961 371.213L889.098 340.692V279.651Z" stroke="#192168"/>
<path d="M1724.18 376.449L1777.04 345.928L1829.91 376.449V437.49L1777.04 468.011L1724.18 437.49V376.449Z" stroke="#192168"/>
<path d="M276.808 571.098L329.672 540.577L382.535 571.098V632.139L329.672 662.66L276.808 632.139V571.098Z" stroke="#192168"/>
<path d="M833.529 571.098L886.392 540.577L939.255 571.098V632.139L886.392 662.66L833.529 632.139V571.098Z" stroke="#192168"/>
<path d="M1668.61 473.949L1721.47 443.428L1774.34 473.949V534.99L1721.47 565.511L1668.61 534.99V473.949Z" stroke="#192168"/>
<path d="M332.377 667.962L385.24 637.441L438.104 667.962V729.003L385.24 759.524L332.377 729.003V667.962Z" stroke="#192168"/>
<path d="M1167.46 570.812L1220.32 540.292L1273.18 570.812V631.854L1220.32 662.374L1167.46 631.854V570.812Z" stroke="#192168"/>
<path d="M889.098 667.962L941.961 637.441L994.824 667.962V729.003L941.961 759.524L889.098 729.003V667.962Z" stroke="#192168"/>
<path d="M1724.18 570.812L1777.04 540.292L1829.91 570.812V631.854L1777.04 662.374L1724.18 631.854V570.812Z" stroke="#192168"/>
<path d="M276.808 765.396L329.672 734.876L382.535 765.396V826.438L329.672 856.958L276.808 826.438V765.396Z" stroke="#192168"/>
<path d="M833.529 765.396L886.392 734.876L939.255 765.396V826.438L886.392 856.958L833.529 826.438V765.396Z" stroke="#192168"/>
<path d="M1668.61 668.247L1721.47 637.726L1774.34 668.247V729.288L1721.47 759.809L1668.61 729.288V668.247Z" stroke="#192168"/>
<path d="M332.377 862.325L385.24 831.805L438.104 862.325V923.367L385.24 953.887L332.377 923.367V862.325Z" stroke="#192168"/>
<path d="M1167.46 765.176L1220.32 734.655L1273.18 765.176V826.217L1220.32 856.738L1167.46 826.217V765.176Z" stroke="#192168"/>
<path d="M889.098 862.325L941.961 831.805L994.824 862.325V923.367L941.961 953.887L889.098 923.367V862.325Z" stroke="#192168"/>
<path d="M1724.18 765.176L1777.04 734.655L1829.91 765.176V826.217L1777.04 856.738L1724.18 826.217V765.176Z" stroke="#192168"/>
<path d="M276.808 959.695L329.672 929.174L382.535 959.695V1020.74L329.672 1051.26L276.808 1020.74V959.695Z" stroke="#192168"/>
<path d="M833.529 959.695L886.392 929.174L939.255 959.695V1020.74L886.392 1051.26L833.529 1020.74V959.695Z" stroke="#192168"/>
<path d="M1612.65 959.695L1665.52 929.174L1718.38 959.695V1020.74L1665.52 1051.26L1612.65 1020.74V959.695Z" stroke="#192168"/>
<path d="M1668.61 862.545L1721.47 832.025L1774.34 862.545V923.587L1721.47 954.107L1668.61 923.587V862.545Z" stroke="#192168"/>
<path d="M-56.443 -10.6822L-3.5797 -41.2029L49.2836 -10.6822V50.3591L-3.5797 80.8798L-56.443 50.3591V-10.6822Z" stroke="#192168"/>
<path d="M221.246 1056.14L274.109 1025.62L326.973 1056.14V1117.18L274.109 1147.7L221.246 1117.18V1056.14Z" stroke="#192168"/>
<path d="M777.967 1056.14L830.83 1025.62L883.693 1056.14V1117.18L830.83 1147.7L777.967 1117.18V1056.14Z" stroke="#192168"/>
<path d="M1557.09 1056.14L1609.95 1025.62L1662.82 1056.14V1117.18L1609.95 1147.7L1557.09 1117.18V1056.14Z" stroke="#192168"/>
<path d="M109.85 1056.14L162.714 1025.62L215.577 1056.14V1117.18L162.714 1147.7L109.85 1117.18V1056.14Z" stroke="#192168"/>
<path d="M-1.28727 1055.96L51.5761 1025.44L104.439 1055.96V1117L51.5761 1147.52L-1.28727 1117V1055.96Z" stroke="#192168"/>
<path d="M666.571 1056.14L719.434 1025.62L772.297 1056.14V1117.18L719.434 1147.7L666.571 1117.18V1056.14Z" stroke="#192168"/>
<path d="M1445.7 1056.14L1498.56 1025.62L1551.42 1056.14V1117.18L1498.56 1147.7L1445.7 1117.18V1056.14Z" stroke="#192168"/>
<path d="M444.038 1056.14L496.901 1025.62L549.764 1056.14V1117.18L496.901 1147.7L444.038 1117.18V1056.14Z" stroke="#192168"/>
<path d="M1223.16 1056.14L1276.03 1025.62L1328.89 1056.14V1117.18L1276.03 1147.7L1223.16 1117.18V1056.14Z" stroke="#192168"/>
<path d="M1000.76 1056.14L1053.62 1025.62L1106.48 1056.14V1117.18L1053.62 1147.7L1000.76 1117.18V1056.14Z" stroke="#192168"/>
<path d="M1779.88 1056.14L1832.75 1025.62L1885.61 1056.14V1117.18L1832.75 1147.7L1779.88 1117.18V1056.14Z" stroke="#192168"/>
<path d="M555.434 1056.14L608.297 1025.62L661.16 1056.14V1117.18L608.297 1147.7L555.434 1117.18V1056.14Z" stroke="#192168"/>
<path d="M1334.56 1056.14L1387.42 1025.62L1440.28 1056.14V1117.18L1387.42 1147.7L1334.56 1117.18V1056.14Z" stroke="#192168"/>
<path d="M1112.15 1056.14L1165.02 1025.62L1217.88 1056.14V1117.18L1165.02 1147.7L1112.15 1117.18V1056.14Z" stroke="#192168"/>
<path d="M1891.28 1056.14L1944.14 1025.62L1997.01 1056.14V1117.18L1944.14 1147.7L1891.28 1117.18V1056.14Z" stroke="#192168"/>
<path d="M332.642 1056.14L385.505 1025.62L438.368 1056.14V1117.18L385.505 1147.7L332.642 1117.18V1056.14Z" stroke="#192168"/>
<path d="M889.363 1056.14L942.226 1025.62L995.089 1056.14V1117.18L942.226 1147.7L889.363 1117.18V1056.14Z" stroke="#192168"/>
<path d="M1668.49 1056.14L1721.35 1025.62L1774.21 1056.14V1117.18L1721.35 1147.7L1668.49 1117.18V1056.14Z" stroke="#192168"/>
</svg>
