<svg width="290" height="68" viewBox="0 0 290 68" fill="none" xmlns="http://www.w3.org/2000/svg">
<path d="M172.266 8.39819H173.728C173.728 8.39819 171.92 21.6981 171.853 22.2392C171.85 22.3334 171.824 22.4222 171.78 22.4872C171.737 22.5522 171.679 22.5884 171.618 22.5883H169.275C169.221 22.5892 169.168 22.5597 169.127 22.5052C169.086 22.4507 169.059 22.3748 169.051 22.2916C169.051 21.925 167.935 11.1908 167.935 11.1908H167.79C167.79 11.1908 166.674 21.925 166.674 22.2916C166.664 22.3762 166.634 22.4524 166.592 22.5067C166.549 22.561 166.495 22.5899 166.44 22.5883H164.007C163.947 22.5884 163.889 22.5522 163.845 22.4872C163.801 22.4222 163.775 22.3334 163.772 22.2392C163.705 21.6981 161.897 8.39819 161.897 8.39819H163.337L164.844 20.616H165.357L166.741 8.39819H168.806L170.201 20.616H170.703L172.266 8.39819Z" fill="#8C8C8C"/>
<path d="M175.257 8.39819H181.44V10.1436H176.574V14.4547H180.904V16.2001H176.574V20.5811H181.429V22.4836H175.257V8.39819Z" fill="#8C8C8C"/>
<path d="M183.895 8.39819V9.9865C183.895 11.1559 183.783 11.2083 182.779 13.3726L182.221 12.7617C182.701 11.1385 182.768 11.0163 182.768 9.89923V8.39819H183.895Z" fill="#8C8C8C"/>
<path d="M186.414 22.5541H185.097V8.39884H189.706C190.026 8.33202 190.352 8.37829 190.66 8.53423C190.967 8.69018 191.249 8.95185 191.483 9.30004C191.718 9.64822 191.899 10.0741 192.015 10.5464C192.13 11.0186 192.176 11.5253 192.15 12.0293V13.67C192.211 14.4335 192.087 15.205 191.802 15.832C191.516 16.4591 191.091 16.8959 190.61 17.056L192.418 22.5541H191.012L189.271 17.3178H186.414V22.5541ZM190.967 13.2336V12.3609C190.967 10.8075 190.532 10.1617 189.527 10.1617H186.414V15.5201H189.527C190.532 15.5201 190.967 14.787 190.967 13.2336Z" fill="#8C8C8C"/>
<path d="M194.184 8.39819H200.366V10.1436H195.501V14.4547H199.831V16.2001H195.501V20.5811H200.355V22.4836H194.184V8.39819Z" fill="#8C8C8C"/>
<path d="M210.923 18.4866H206.995L206.147 22.5534H204.629L207.575 8.74727C207.575 8.48546 207.653 8.39819 207.921 8.39819H209.919C210.198 8.39819 210.232 8.39819 210.287 8.74727L213.234 22.5534H211.749L210.923 18.4866ZM207.319 16.4968H210.589L209.238 10.1261H208.691L207.319 16.4968Z" fill="#8C8C8C"/>
<path d="M214.763 8.39819H216.08V20.7032H220.823V22.5534H214.763V8.39819Z" fill="#8C8C8C"/>
<path d="M222.106 8.39819H223.423V20.7032H228.167V22.5534H222.106V8.39819Z" fill="#8C8C8C"/>
<path d="M235.703 14.7687H239.653L239.519 22.0645C239.523 22.1132 239.519 22.1623 239.509 22.2088C239.5 22.2553 239.484 22.298 239.463 22.3342C239.442 22.3704 239.416 22.3993 239.387 22.419C239.359 22.4387 239.328 22.4487 239.296 22.4485C239.296 22.4485 236.897 22.6404 234.743 22.6404C234.417 22.6886 234.088 22.6239 233.779 22.4508C233.471 22.2778 233.191 22.0007 232.958 21.6391C232.726 21.2776 232.548 20.8406 232.436 20.3591C232.324 19.8775 232.281 19.3633 232.31 18.8529V12.0982C232.28 11.5846 232.323 11.0671 232.437 10.5828C232.55 10.0985 232.731 9.65945 232.965 9.29729C233.2 8.93514 233.483 8.65883 233.795 8.48825C234.106 8.31766 234.437 8.25703 234.765 8.31071C237.254 8.31071 239.073 8.31071 239.073 8.31071V10.0561H235.1C234.096 10.0561 233.66 10.7019 233.66 12.2553V18.4166C233.66 19.97 234.096 20.6507 235.1 20.6332H238.336L238.403 16.6188L235.736 16.5141L235.703 14.7687Z" fill="#8C8C8C"/>
<path d="M247.143 18.4866H243.214L242.366 22.5534H240.882L243.828 8.74727C243.828 8.48546 243.906 8.39819 244.174 8.39819H246.172C246.451 8.39819 246.484 8.39819 246.54 8.74727L249.487 22.5534H248.002L247.143 18.4866ZM243.538 16.4968H246.808L245.458 10.1261H244.911L243.538 16.4968Z" fill="#8C8C8C"/>
<path d="M258.583 8.55528C258.59 8.51206 258.606 8.47351 258.628 8.44525C258.65 8.417 258.677 8.40051 258.705 8.39819H260.502V22.5534H259.185V11.8366H259.096L256.563 22.309C256.563 22.309 256.563 22.5185 256.418 22.5185H255.078C255.04 22.5191 255.004 22.4982 254.975 22.4596C254.946 22.4211 254.927 22.3676 254.922 22.309L252.389 11.8366H252.299V22.5534H250.982V8.39819H252.779C252.809 8.39953 252.838 8.41535 252.862 8.44348C252.886 8.47161 252.904 8.51067 252.913 8.55528L255.659 19.6909H255.826L258.583 8.55528Z" fill="#8C8C8C"/>
<path d="M262.668 8.39819H268.851V10.1436H263.985V14.4547H268.304V16.2001H263.985V20.5811H268.84V22.4836H262.668V8.39819Z" fill="#8C8C8C"/>
<path d="M272.086 22.5529H270.77V8.39774H275.379C275.699 8.33043 276.024 8.37649 276.331 8.53251C276.639 8.68852 276.919 8.95051 277.153 9.29908C277.386 9.64765 277.567 10.0739 277.681 10.5463C277.795 11.0187 277.84 11.5251 277.812 12.0282V13.6688C277.873 14.4299 277.75 15.1994 277.468 15.826C277.185 16.4526 276.762 16.891 276.283 17.0549L278.091 22.5529H276.685L274.932 17.3167H272.086V22.5529ZM276.629 13.2325V12.3598C276.629 10.8064 276.205 10.1606 275.2 10.1606H272.086V15.519H275.2C276.205 15.519 276.629 14.7859 276.629 13.2325Z" fill="#8C8C8C"/>
<path d="M285.967 10.231H282.128C281.012 10.231 280.811 10.4405 280.811 11.8717V12.3778C280.811 13.1109 280.956 13.268 281.536 13.46L284.985 14.4549C286.101 14.7865 286.547 15.4847 286.547 17.1952V19.1151C286.547 21.6459 285.878 22.6059 283.858 22.6059C281.626 22.6059 279.449 22.4314 279.449 22.4314V20.686H283.69C284.884 20.686 285.208 20.302 285.208 18.7835V17.5966C285.222 17.4476 285.216 17.2956 285.191 17.1504C285.165 17.0052 285.12 16.87 285.06 16.7533C284.999 16.6367 284.923 16.5412 284.837 16.473C284.751 16.4049 284.657 16.3655 284.561 16.3574L281.324 15.4323C280.108 15.0832 279.472 14.8738 279.472 12.884V11.6797C279.472 9.14885 280.164 8.27615 282.172 8.31106C284.405 8.31106 285.978 8.4856 285.978 8.4856L285.967 10.231Z" fill="#8C8C8C"/>
<path d="M288.636 20.25C288.79 20.2535 288.94 20.328 289.067 20.4644C289.194 20.6007 289.293 20.7927 289.35 21.0162C289.408 21.2397 289.421 21.4848 289.39 21.7207C289.359 21.9565 289.283 22.1726 289.174 22.3417C289.064 22.5108 288.925 22.6255 288.773 22.6712C288.622 22.7169 288.466 22.6918 288.324 22.5988C288.182 22.5058 288.06 22.3492 287.975 22.1487C287.889 21.9482 287.844 21.7127 287.844 21.4718C287.842 21.3092 287.862 21.1478 287.901 20.9973C287.941 20.8468 287.999 20.7104 288.073 20.5962C288.147 20.4821 288.235 20.3925 288.332 20.333C288.429 20.2735 288.532 20.2453 288.636 20.25Z" fill="#8C8C8C"/>
<path d="M155.122 4.97754H154.52V26.0794H155.122V4.97754Z" fill="#8C8C8C"/>
<path d="M33.3589 26.0798H38.2695C38.2695 26.0798 39.3855 20.285 39.4748 19.8138L49.8987 10.4934L51.0148 4.96045H46.1042L45.5796 7.73563L37.8565 14.5601C37.6222 14.246 33.3923 8.53852 33.0017 8.0149L33.5932 4.96045H28.6714L27.667 10.1966L34.5865 19.6916L33.3589 26.0798Z" fill="#DD052B"/>
<path d="M74.7998 17.5099L73.1592 26.0798H95.4803L96.5963 20.5119H79.6323L87.0875 15.6074C87.0875 15.6074 82.0095 11.1741 81.2617 10.5457H98.4267L99.5427 4.96045H77.2216L75.6145 13.286L78.014 15.4154L74.7998 17.5099Z" fill="#DD052B"/>
<path d="M9.321 4.96045H4.44385L0.392578 26.0798H5.28089L9.321 4.96045Z" fill="#DD052B"/>
<path d="M26.2408 4.95935H21.7766C21.7766 4.95935 20.4819 12.0108 20.2922 12.7089H9.13168L8.01562 18.2942H19.1762C18.8971 19.7254 17.6806 26.0612 17.6806 26.0612H22.5913L26.6314 4.94189L26.2408 4.95935Z" fill="#DD052B"/>
<path d="M56.5211 10.5457H68.9762C68.9092 10.8599 68.7084 11.9246 68.6414 12.2911L64.445 15.0314H56.934L55.818 20.5992H65.204L72.9382 15.555L74.9694 4.96045H52.6484L48.5859 26.0798H53.5077L56.5211 10.5457Z" fill="#DD052B"/>
<path d="M99.1311 19.0105L97.7695 26.0794H102.68C102.68 26.0794 103.517 21.681 103.718 20.721C102.234 20.0752 100.705 19.5167 99.1311 19.0105Z" fill="#DD052B"/>
<path d="M114.945 20.32L122.043 15.7994L124.119 4.96045H101.798L99.7217 16.0612C104.903 16.2888 110.034 17.7242 114.945 20.32ZM105.67 10.5457H118.125L117.746 12.5006L113.929 15.0314H104.8C104.989 14.0889 105.559 11.1217 105.67 10.5457Z" fill="#DD052B"/>
<path d="M145.927 67.6023C142.579 52.0857 137.524 41.0722 131.787 33.2878C136.932 25.4509 140.436 14.8389 141.073 0.491699C141.073 0.491699 138.963 14.7691 127.68 28.4181C110.939 10.5976 90.906 15.6592 90.906 15.6592C102.557 16.9536 113.801 22.9033 123.562 32.9387C113.015 43.4111 96.2966 52.4523 69.9912 52.749C69.9912 52.749 107.691 61.6331 128.227 38.0352C135.187 46.1961 141.178 56.2035 145.927 67.6023Z" fill="#B3B3B3"/>
<path d="M145.089 4.97754V5.72806H144.174V9.44573H143.605V5.72806H142.689V4.97754H145.089ZM148.169 9.44573L148.069 6.8102C148.069 6.46112 148.069 6.04223 148.069 5.57097C148.002 5.95496 147.913 6.47857 147.823 6.89747L147.31 9.37592H146.73L146.216 6.82765C146.16 6.47857 146.071 5.95496 146.015 5.57097C146.015 5.97241 146.015 6.40876 146.015 6.8102L145.915 9.44573H145.368L145.48 4.97754H146.339L146.83 7.15928C146.897 7.50835 146.942 7.82252 147.02 8.29378C147.087 7.87488 147.154 7.50835 147.221 7.17673L147.712 4.97754H148.526L148.75 9.44573H148.169Z" fill="black"/>
</svg>
