<svg width="64" height="65" viewBox="0 0 64 65" fill="none" xmlns="http://www.w3.org/2000/svg">
<g clip-path="url(#clip0)">
<path d="M31.3308 22.3404C30.8655 22.5999 30.5483 23.1034 30.5483 23.6791V28.1125C30.5483 28.6878 30.8655 29.1912 31.3308 29.4508C31.3517 29.4611 31.3729 29.4698 31.3924 29.4801V29.4508C31.5884 29.5688 31.8138 29.6372 32.0497 29.6372C32.2865 29.6372 32.511 29.5688 32.7063 29.4508V29.4801C32.7266 29.4698 32.7483 29.4611 32.768 29.4508C33.2333 29.1913 33.5505 28.6878 33.5505 28.1125V23.6794C33.5505 23.1034 33.2333 22.5999 32.768 22.3408C32.7481 22.3305 32.7266 22.3218 32.7063 22.3116V22.3408C32.511 22.2236 32.2862 22.1538 32.0497 22.1538C31.8136 22.1538 31.5884 22.2236 31.3924 22.3408V22.3116C31.3724 22.3215 31.3517 22.3301 31.3308 22.3404Z" fill="#7E7E7E"/>
<path d="M34.8659 17.1977H32.7072V13.5679C32.7072 12.7917 32.8592 12.0355 33.1567 11.3209C33.4554 10.6058 33.8855 9.97004 34.4333 9.43131L34.5297 9.33757C35.2063 8.6726 35.7352 7.88966 36.1032 7.00947C36.4706 6.12928 36.6559 5.19727 36.6559 4.24153V0.610596H35.3435V4.24141C35.3435 5.01694 35.1921 5.77289 34.8939 6.48794C34.5958 7.20235 34.1658 7.83821 33.618 8.37782L33.5215 8.47156C32.8442 9.13591 32.315 9.91947 31.948 10.8003C31.5806 11.6805 31.3931 12.6115 31.3931 13.5676V17.1974H29.236C22.0128 17.1974 16.1016 23.2036 16.1016 30.5431V33.54C20.639 36.1418 25.8495 37.6649 31.3931 37.7767V34.0858C31.3732 34.0796 31.3524 34.0765 31.3315 34.0707C30.1289 33.7462 29.2364 32.6269 29.2364 31.3063V23.68C29.2364 22.3583 30.1291 21.2394 31.3315 20.9156C31.3524 20.9098 31.3735 20.9059 31.3931 20.9008V17.1974L32.7072 17.1977L32.707 20.9008C32.7273 20.9059 32.7491 20.9098 32.7687 20.9156C33.9725 21.2394 34.8658 22.3583 34.8658 23.68V31.3059C34.8658 32.6269 33.9726 33.7462 32.7687 34.0703C32.7488 34.0761 32.7273 34.0794 32.707 34.0854V37.7763C38.2515 37.6645 43.4626 36.1414 47.9992 33.5396V30.5426C47.9993 23.2039 42.0885 17.1977 34.8659 17.1977Z" fill="#7E7E7E"/>
<path d="M16.1011 35.0608V51.5142C16.1011 58.8553 22.0126 64.8611 29.2355 64.8611H34.8653C42.0879 64.8611 47.9987 58.8553 47.9987 51.5142V35.0608C43.2441 37.6517 37.8116 39.1224 32.0499 39.1224C26.2882 39.1224 20.8558 37.652 16.1011 35.0608Z" fill="#7E7E7E"/>
<path d="M16.1138 29.8594V33.556L17.8957 34.5324L19.9026 35.474L23.0858 36.5201L25.7327 37.2002L28.3105 37.5838L30.3519 37.793H31.3726V34.1837V34.0616L31.1131 33.9396L30.6633 33.8001L30.3519 33.556L29.9194 33.2247L29.5734 32.7713L29.2274 31.8298L29.3658 23.129V22.7628L29.4869 22.4664L29.6599 22.2223L29.7983 21.9433L30.0405 21.6992L30.3519 21.4377L30.6633 21.1412L31.3726 20.932V17.2529H31.1131H30.0405H28.6738H27.6012L26.1307 17.4796L23.7259 18.4037L22.1343 19.2756L20.3005 20.7751L19.0894 22.0828L18.0341 23.5823L17.1518 25.326L16.4079 27.5753L16.1138 29.8594Z" fill="white" stroke="white" stroke-width="1.01986"/>
</g>
<defs>
<clipPath id="clip0">
<rect width="63.2312" height="64.2511" fill="white" transform="translate(0.433105 0.610352)"/>
</clipPath>
</defs>
</svg>
