<svg height="509pt" viewBox="0 0 509 509.184" width="509pt" xmlns="http://www.w3.org/2000/svg">
<path stroke='#D7D7D7' fill='#D7D7D7' d="m245.949219 189.855469h16v128h-16zm0 0"/>
<path stroke='#D7D7D7' fill='#D7D7D7' d="m189.949219 245.855469h128v16h-128zm0 0"/>
<path stroke='#D7D7D7' fill='#D7D7D7' d="m463.164062 400.839844c23.917969-33.792969 39.238282-72.90625 44.640626-113.953125l-15.863282-2.0625c-4.941406 37.546875-18.746094 73.375-40.265625 104.535156l-22.984375-22.984375c15.535156-24.027344 25.925782-51.011719 30.511719-79.253906l-15.792969-2.527344c-4.03125 24.910156-12.957031 48.777344-26.261718 70.222656l-35.144532-35.144531c5.234375-10.140625 9.261719-20.859375 12-31.9375l-15.550781-3.757813c-2.015625 8.199219-4.828125 16.183594-8.394531 23.839844-17.242188-16.59375-44.59375-16.328125-61.515625.59375s-17.1875 44.273438-.59375 61.519532c-7.65625 3.570312-15.640625 6.382812-23.839844 8.398437l3.757813 15.542969c11.082031-2.738282 21.800781-6.765625 31.945312-12l35.09375 35.183594c-21.4375 13.316406-45.308594 22.25-70.222656 26.28125l2.527344 15.792968c28.242187-4.585937 55.230468-14.976562 79.257812-30.511718l22.984375 22.984374c-31.160156 21.519532-66.992187 35.320313-104.539063 40.261719l2.066407 15.855469c41.046875-5.394531 80.160156-20.714844 113.953125-44.640625l46.101562 46.105469 62.226563-62.222656zm-143.40625-41.601563c-10.9375-10.933593-10.9375-28.664062 0-39.597656 10.933594-10.9375 28.664063-10.9375 39.597657 0l14.144531 14.144531-39.601562 39.597656zm36.796876 36.800781-11.320313-11.3125 39.601563-39.597656 11.3125 11.3125zm11.3125 11.3125 39.601562-39.597656 56.566406 56.566406-39.597656 39.609376zm67.878906 67.886719 39.601562-39.605469 11.3125 11.320313-39.601562 39.597656zm0 0"/>
<path stroke='#D7D7D7' fill='#D7D7D7' d="m491.941406 222.886719 15.863282-2.0625c-14.996094-115.164063-105.636719-205.804688-220.800782-220.8007815l-2.046875 15.8710935c107.957031 14.066407 192.921875 99.035157 206.984375 206.992188zm0 0"/>
<path stroke='#D7D7D7' fill='#D7D7D7' d="m222.972656 15.871094-2.046875-15.871094c-115.164062 14.996094-205.804687 105.636719-220.800781 220.800781l15.863281 2.0625c14.058594-107.957031 99.027344-192.925781 206.984375-206.992187zm0 0"/>
<path stroke='#D7D7D7' fill='#D7D7D7' d="m15.957031 284.824219-15.863281 2.0625c14.996094 115.164062 105.636719 205.804687 220.796875 220.800781l2.050781-15.871094c-107.957031-14.066406-192.925781-99.035156-206.984375-206.992187zm0 0"/>
<path stroke='#D7D7D7' fill='#D7D7D7' d="m443.410156 223.121094 15.792969-2.527344c-14.085937-88.507812-83.492187-157.917969-172-172l-2.542969 15.789062c81.679688 13.007813 145.738282 77.058594 158.75 158.738282zm0 0"/>
<path stroke='#D7D7D7' fill='#D7D7D7' d="m48.691406 220.59375 15.792969 2.527344c13.015625-81.671875 77.0625-145.71875 158.734375-158.730469l-2.542969-15.789063c-88.496093 14.089844-157.898437 83.492188-171.984375 171.992188zm0 0"/>
<path stroke='#D7D7D7' fill='#D7D7D7' d="m64.484375 284.59375-15.792969 2.527344c14.085938 88.503906 83.496094 157.914062 172 172l2.542969-15.792969c-81.679687-13.007813-145.734375-77.058594-158.75-158.734375zm0 0"/>
<path stroke='#D7D7D7' fill='#D7D7D7' d="m378.410156 223.726562 15.554688-3.742187c-12.539063-52.558594-53.582032-93.597656-106.144532-106.128906l-3.746093 15.542969c46.519531 11.492187 82.84375 47.8125 94.335937 94.328124zm0 0"/>
<path stroke='#D7D7D7' fill='#D7D7D7' d="m113.949219 219.984375 15.550781 3.742187c11.484375-46.519531 47.800781-82.84375 94.320312-94.34375l-3.746093-15.527343c-52.554688 12.539062-93.589844 53.574219-106.125 106.128906zm0 0"/>
<path stroke='#D7D7D7' fill='#D7D7D7' d="m129.484375 283.984375-15.550781 3.742187c12.539062 52.5625 53.582031 93.597657 106.140625 106.128907l3.746093-15.542969c-46.519531-11.492188-82.84375-47.808594-94.335937-94.328125zm0 0"/>
</svg>